<svg xmlns="http://www.w3.org/2000/svg" viewBox="0 0 32.88 35.39"><defs><style>.cls-1{fill:#fff;}</style></defs><title>Asset 1</title><g id="Layer_2" data-name="Layer 2"><g id="Layer_1-2" data-name="Layer 1"><path class="cls-1" d="M32.41,25.15c-.17-.43-.35-.89-.53-1.28l-.81-1.8,0,0C28.59,16.72,26,11.33,23.2,6l-.1-.21c-.29-.53-.57-1.1-.85-1.67A10.29,10.29,0,0,0,21,2.2,5.71,5.71,0,0,0,16.47,0a5.93,5.93,0,0,0-4.53,2.13,12.71,12.71,0,0,0-1.28,1.94c-.28.57-.56,1.14-.85,1.67L9.71,6C7,11.26,4.32,16.65,1.88,22l0,.07c-.24.57-.53,1.17-.81,1.81-.18.39-.35.81-.53,1.27a8.06,8.06,0,0,0-.43,3.83,7.52,7.52,0,0,0,4.61,5.88,7.28,7.28,0,0,0,2.87.57,7.14,7.14,0,0,0,.92-.08A9.36,9.36,0,0,0,12,34.11a17.87,17.87,0,0,0,4.39-3.68,18.47,18.47,0,0,0,4.4,3.68,9.3,9.3,0,0,0,3.54,1.2,7,7,0,0,0,.92.08,7.17,7.17,0,0,0,2.87-.57,7.51,7.51,0,0,0,4.6-5.88A6.64,6.64,0,0,0,32.41,25.15ZM16.44,27a17.56,17.56,0,0,1-3.58-6.59,5.78,5.78,0,0,1-.11-2.16,3.68,3.68,0,0,1,.57-1.49,3.77,3.77,0,0,1,3.12-1.55,3.63,3.63,0,0,1,3.12,1.55,3.53,3.53,0,0,1,.56,1.49A5.74,5.74,0,0,1,20,20.4,18.08,18.08,0,0,1,16.44,27Zm14.13,1.67a5.27,5.27,0,0,1-3.22,4.14,5.36,5.36,0,0,1-2.69.35,6.89,6.89,0,0,1-2.7-.92,16.46,16.46,0,0,1-4-3.43A20,20,0,0,0,22.21,21a8.74,8.74,0,0,0,.18-3,5.67,5.67,0,0,0-1-2.41,6,6,0,0,0-5-2.52,6.07,6.07,0,0,0-5,2.52A5.78,5.78,0,0,0,10.49,18a7.43,7.43,0,0,0,.17,3A20.7,20.7,0,0,0,15,28.83a15.85,15.85,0,0,1-4,3.44,7,7,0,0,1-2.69.92,5.71,5.71,0,0,1-2.69-.35,5.25,5.25,0,0,1-3.22-4.15,5.85,5.85,0,0,1,.31-2.76c.11-.36.29-.71.46-1.14s.54-1.16.82-1.77l0-.07C6.38,17.68,9,12.29,11.73,7.05l.1-.21c.29-.54.57-1.1.85-1.63a8,8,0,0,1,1-1.56,3.71,3.71,0,0,1,5.66,0,7.52,7.52,0,0,1,1,1.56c.29.53.57,1.09.85,1.63l.11.21C24,12.33,26.6,17.71,29.05,23v0c.28.57.53,1.21.81,1.77a10.47,10.47,0,0,1,.46,1.14A5.92,5.92,0,0,1,30.57,28.66Z"/></g></g></svg>