<?xml version="1.0" encoding="UTF-8"?>
<svg width="101px" height="16px" viewBox="0 0 101 16" version="1.1" xmlns="http://www.w3.org/2000/svg" xmlns:xlink="http://www.w3.org/1999/xlink">
    <!-- Generator: Sketch 58 (84663) - https://sketch.com -->
    <title>full-logo</title>
    <desc>Created with Sketch.</desc>
    <g id="Page-1" stroke="none" stroke-width="1" fill="none" fill-rule="evenodd">
        <g id="full-logo" transform="translate(-1.000000, -1.000000)" fill="#FFFFFF" fill-rule="nonzero">
            <path d="M7.42,14.32 C7.27087399,14.3060354 7.13429589,14.4042009 7.1,14.55 C7.08848252,14.9318888 6.92248376,15.2927557 6.64,15.55 C6.3269144,15.8105742 5.92669667,15.942789 5.52,15.92 C5.1246441,15.9282818 4.75058814,15.7412538 4.52,15.42 C4.23192513,15.003676 4.08473802,14.5060434 4.1,14 L4.1,7.33 L7.2,7.33 C7.26894412,7.3402651 7.33867394,7.31725045 7.3879622,7.2679622 C7.43725045,7.21867394 7.4602651,7.14894412 7.45,7.08 L7.45,6.93 C7.4602651,6.86105588 7.43725045,6.79132606 7.3879622,6.7420378 C7.33867394,6.69274955 7.26894412,6.6697349 7.2,6.68 L4.1,6.68 L4.1,4.75 C4.1,4.48 4.02,4.35 3.85,4.35 L3.69,4.35 C3.52,4.35 3.42,4.48 3.39,4.75 C3.32,6 2.9,6.68 2.12,6.68 L1.25,6.68 C1.18105588,6.6697349 1.11132606,6.69274955 1.0620378,6.7420378 C1.01274955,6.79132606 0.989734896,6.86105588 1,6.93 L1,7.08 C0.989734896,7.14894412 1.01274955,7.21867394 1.0620378,7.2679622 C1.11132606,7.31725045 1.18105588,7.3402651 1.25,7.33 L2.85,7.33 L2.85,14 C2.79450841,14.7753418 3.02583162,15.5440466 3.5,16.16 C3.95020576,16.6571198 4.60024388,16.9252146 5.27,16.89 C5.91834995,16.9042717 6.54400382,16.6511169 7,16.19 C7.43237562,15.7712791 7.67141685,15.1917852 7.66,14.59 C7.68,14.41 7.6,14.32 7.42,14.32 Z" id="Path"></path>
            <path d="M24.13,6.68 L22.42,6.68 C22.25,6.68 22.17,6.75 22.17,6.89 L22.17,6.89 C22.17,6.97 22.25,7.05 22.4,7.12 C22.5520493,7.18853171 22.6908369,7.28331349 22.81,7.4 C22.9260272,7.54516517 22.9456253,7.74506497 22.86,7.91 L20.17,15.53 L17.49,7 C17.4612681,6.91978466 17.4244098,6.84271724 17.38,6.77 C17.3401643,6.72434564 17.2800325,6.70179619 17.22,6.71 L16.8,6.71 C16.66,6.71 16.56,6.81 16.51,7 L13.76,15.52 L11,7.89 C10.9416481,7.75260551 10.9416481,7.59739449 11,7.46 C11.0454572,7.36663961 11.1188537,7.28974805 11.21,7.24 L11.47,7.11 C11.5402051,7.07680339 11.5863589,7.00757262 11.59,6.93 L11.59,6.93 C11.59,6.79 11.51,6.72 11.34,6.72 L9.34,6.72 C9.15,6.72 9.06,6.79 9.06,6.93 L9.06,6.93 C9.06,7.01 9.16,7.13 9.36,7.27 C9.55976002,7.43121392 9.70901082,7.64641276 9.79,7.89 L13,16.3 C13.0683688,16.5277051 13.2824646,16.6800425 13.52,16.67 L13.69,16.67 C13.9113246,16.6703585 14.1029099,16.5162573 14.15,16.3 L16.73,8.3 L19.29,16.3 C19.3353887,16.534403 19.5525677,16.6951155 19.79,16.67 L20.04,16.67 C20.2587579,16.6632385 20.4465055,16.5122241 20.5,16.3 L23.5,7.89 C23.5683945,7.69684008 23.6855084,7.52461388 23.84,7.39 C23.9488821,7.2962738 24.066027,7.21259886 24.19,7.14 C24.2750577,7.10321222 24.332787,7.02239115 24.34,6.93 L24.34,6.93 C24.38,6.75 24.29,6.68 24.13,6.68 Z" id="Path"></path>
            <path d="M31,6.49 C29.6642141,6.4512612 28.3732042,6.97346745 27.44,7.93 C26.4906358,8.86799843 25.9697468,10.1557518 26,11.49 C25.9787137,12.9001594 26.5140637,14.2618885 27.49,15.28 C28.4518717,16.3193877 29.814266,16.8949446 31.23,16.86 C32.5423759,16.9036451 33.8088624,16.3744217 34.7,15.41 C35.6172187,14.4285037 36.1064985,13.1225584 36.06,11.78 C36.107787,10.3832117 35.6008801,9.02426964 34.65,8 C33.7049117,6.9983551 32.3765126,6.44879821 31,6.49 L31,6.49 Z M33.87,15.14 C33.2971524,15.8907092 32.4042756,16.3278854 31.46,16.32 C30.2704213,16.3293564 29.150918,15.7584097 28.46,14.79 C27.6597801,13.7440712 27.2400274,12.4565943 27.27,11.14 C27.2258556,10.0666651 27.5822703,9.01524198 28.27,8.19 C28.8956431,7.42167797 29.8393135,6.98301866 30.83,7 C31.9814233,6.99418111 33.0620501,7.55506011 33.72,8.5 C34.5132124,9.55889608 34.9191412,10.8578684 34.87,12.18 C34.9083003,13.252182 34.5605575,14.3025074 33.89,15.14 L33.87,15.14 Z" id="Shape"></path>
            <path d="M47.47,13.45 C47.3098128,13.3986587 47.1354255,13.465092 47.05,13.61 C46.8227025,14.0606458 46.4770083,14.4409094 46.05,14.71 C45.5522914,14.9979869 44.9848681,15.1433026 44.41,15.13 C43.7370037,15.1454705 43.0783614,14.9341414 42.54,14.53 C41.9892011,14.0926989 41.5760574,13.5059653 41.35,12.84 L46.35,10.99 C47.0044996,10.8157678 47.4470029,10.206282 47.41,9.53 C47.4003131,8.70881005 47.0356222,7.93201844 46.41,7.4 C45.6042265,6.73315756 44.5735989,6.40035073 43.53,6.47 C42.2015579,6.44490469 40.9226113,6.9738741 40,7.93 C39.0365099,8.90038689 38.5125048,10.2230479 38.55,11.59 C38.4960917,13.0101262 39.0191174,14.3916354 40,15.42 C40.914709,16.3876697 42.1989974,16.9188485 43.53,16.88 C44.5973739,16.9249345 45.6428179,16.5681277 46.46,15.88 C47.1283632,15.3663636 47.5869092,14.6270025 47.75,13.8 C47.7643898,13.7155859 47.7420205,13.6290458 47.6885267,13.5621786 C47.635033,13.4953114 47.555514,13.4544911 47.47,13.45 Z M41,10.66 C40.9593117,9.80188017 41.1602642,8.94956457 41.58,8.2 C41.8881842,7.62421283 42.4869329,7.26342835 43.14,7.26 C43.7180642,7.26940139 44.2506822,7.57537341 44.55,8.07 C44.8984235,8.51378443 45.0978975,9.05621368 45.12,9.62 C45.1415523,9.99487766 44.9255063,10.3429518 44.58,10.49 L41.09,12 C41.0175474,11.5572011 40.9874115,11.1085106 41,10.66 L41,10.66 Z" id="Shape"></path>
            <path d="M53.53,15.75 C53.2760549,15.5594921 53.1187889,15.2669043 53.1,14.95 L53.1,1.41 C53.1092825,1.26384445 53.0359022,1.12480811 52.91,1.05 C52.7374621,0.9610243 52.5325379,0.9610243 52.36,1.05 L50.25,2.05 C50.02,2.18 49.9,2.3 49.9,2.43 L49.9,2.49 C49.9,2.57 50.03,2.75 50.28,3.01 C50.5266401,3.24056682 50.6676596,3.56238053 50.67,3.9 L50.67,15 C50.6607754,15.3074449 50.5184611,15.5957225 50.28,15.79 C50.03,16.02 49.9,16.21 49.9,16.35 L49.9,16.41 C49.9,16.62 50.04,16.72 50.34,16.72 L53.5,16.72 C53.81,16.72 53.96,16.62 53.96,16.41 L53.96,16.3 C54,16.17 53.82,16 53.53,15.75 Z" id="Path"></path>
            <path d="M65.17,13.45 C65.006909,13.3973025 64.828975,13.4635105 64.74,13.61 C64.5157195,14.0627129 64.1693527,14.4437164 63.74,14.71 C63.2460019,14.9981411 62.6817309,15.1435361 62.11,15.13 C61.4336019,15.1477338 60.771072,14.936288 60.23,14.53 C59.6605746,14.1019973 59.2322101,13.5134316 59,12.84 L64,10.99 C64.6561936,10.8163461 65.1020165,10.2080271 65.07,9.53 C65.0603131,8.70881005 64.6956222,7.93201844 64.07,7.4 C63.2596763,6.73432985 62.2264684,6.40184424 61.18,6.47 C59.8520161,6.44732509 58.5739966,6.97591104 57.65,7.93 C56.6901698,8.90205826 56.1698605,10.2245111 56.21,11.59 C56.1471976,13.0022876 56.6512161,14.3811382 57.61,15.42 C58.5261825,16.3855268 59.809468,16.9162908 61.14,16.88 C62.2106328,16.9264852 63.2597507,16.5696424 64.08,15.88 C64.7483632,15.3663636 65.2069092,14.6270025 65.37,13.8 C65.42,13.61 65.34,13.49 65.17,13.45 Z M58.66,10.66 C58.6223528,9.80092255 58.8267847,8.94854539 59.25,8.2 C59.5548453,7.62105032 60.155697,7.25899864 60.81,7.25999793 C61.3844823,7.27280497 61.912569,7.57834083 62.21,8.07 C62.5584235,8.51378443 62.7578975,9.05621368 62.78,9.62 C62.8015523,9.99487766 62.5855063,10.3429518 62.24,10.49 L58.79,12 C58.6990799,11.559236 58.6554994,11.1100212 58.66,10.66 L58.66,10.66 Z" id="Shape"></path>
            <path d="M77.4,6.68 L75.09,6.68 C74.84,6.68 74.71,6.79 74.71,6.99 L74.71,7.06 C74.71,7.15 74.81,7.27 74.99,7.42 C75.1621272,7.55000388 75.3138101,7.70505751 75.44,7.88 C75.5555628,8.15502007 75.5555628,8.46497993 75.44,8.74 L73,14.92 L70.44,8.45 C70.3631882,8.24702388 70.3631882,8.02297612 70.44,7.82 C70.5274734,7.66938193 70.635138,7.53143669 70.76,7.41 C70.8626572,7.31941477 70.9299606,7.19543486 70.95,7.06 L70.95,7 C70.95,6.8 70.84,6.69 70.6,6.69 L67.11,6.69 C66.86,6.69 66.74,6.79 66.74,6.98 L66.74,7 C66.74,7.15 66.87,7.36 67.14,7.62 C67.368907,7.83549109 67.5584208,8.08930416 67.7,8.37 L71.4,16.18 C71.4933123,16.44843 71.7458162,16.62879 72.03,16.63 L72.9,16.63 C73.1855436,16.6477353 73.4426636,16.4580567 73.51,16.18 L76.61,8.37 C76.7473287,8.05301282 76.9729735,7.78223907 77.26,7.59 C77.6,7.33 77.77,7.13 77.77,7 L77.77,7 C77.77,6.78 77.65,6.68 77.4,6.68 Z" id="Path"></path>
            <path d="M87.9,13.45 C87.7370095,13.4010242 87.5613317,13.4663927 87.47,13.61 C87.2484479,14.0645686 86.9014593,14.4462561 86.47,14.71 C85.9760019,14.9981411 85.4117309,15.1435361 84.84,15.13 C84.1636019,15.1477338 83.501072,14.936288 82.96,14.53 C82.412054,14.0921234 82.0022898,13.5052578 81.78,12.84 L86.78,10.99 C87.4299539,10.8091841 87.8693353,10.2039985 87.84,9.53 C87.8303131,8.70881005 87.4656222,7.93201844 86.84,7.4 C86.043084,6.7454987 85.029695,6.41364949 84,6.47 C82.6715579,6.44490469 81.3926113,6.9738741 80.47,7.93 C79.4991831,8.89702974 78.9677814,10.2201117 79,11.59 C78.9371976,13.0022876 79.4412161,14.3811382 80.4,15.42 C81.3161825,16.3855268 82.599468,16.9162908 83.93,16.88 C85.0006328,16.9264852 86.0497507,16.5696424 86.87,15.88 C87.5383632,15.3663636 87.9969092,14.6270025 88.16,13.8 C88.15,13.61 88.07,13.49 87.9,13.45 Z M81.39,10.66 C81.3584231,9.79900093 81.5698162,8.94649743 82,8.2 C82.3081842,7.62421283 82.9069329,7.26342835 83.56,7.26 C84.1344823,7.27280497 84.662569,7.57834083 84.96,8.07 C85.3114124,8.5128795 85.5143532,9.05522113 85.54,9.62 C85.5630589,9.99815873 85.341497,10.3486295 84.99,10.49 L81.52,12 C81.4340803,11.5584942 81.3905491,11.109788 81.39,10.66 L81.39,10.66 Z" id="Shape"></path>
            <path d="M101.12,15.75 C100.892728,15.5304403 100.753951,15.2350961 100.73,14.92 L100.48,11 C100.499675,9.747812 100.054295,8.53281484 99.23,7.59 C98.5242859,6.85950068 97.545449,6.45708995 96.53,6.48 C95.8653164,6.46876107 95.2095919,6.63441778 94.63,6.96 C94.0874522,7.2718218 93.6464625,7.73364564 93.36,8.29 L93.36,6.93 C93.3754577,6.77756976 93.3201761,6.62646664 93.21,6.52 C93.0569028,6.43822206 92.8730972,6.43822206 92.72,6.52 L90.72,7.52 C90.47,7.64 90.34,7.76 90.34,7.9 L90.34,8 C90.354397,8.1474078 90.4404069,8.27829246 90.57,8.35 C90.7433636,8.46236906 90.9013583,8.59683265 91.04,8.75 C91.2035401,8.92595484 91.2899518,9.15998658 91.28,9.4 L91.28,15 C91.2703266,15.3174697 91.1201125,15.614234 90.87,15.81 C90.59,16.0433333 90.45,16.2233333 90.45,16.35 L90.45,16.43 C90.45,16.64 90.59,16.74 90.89,16.74 L94.11,16.74 C94.42,16.74 94.57,16.64 94.57,16.43 L94.57,16.3 C94.57,16.17 94.43,15.99 94.14,15.76 C93.8893498,15.5831096 93.7285978,15.305447 93.7,15 L93.7,10.05 C93.6710045,9.37818042 93.8838895,8.71823701 94.3,8.19 C94.6895907,7.72197849 95.2711858,7.4569478 95.88,7.47 C97.24,7.47 97.97,8.62 98.07,10.91 L98.28,14.91 C98.287528,15.228184 98.1516858,15.5329113 97.91,15.74 C97.66,15.98 97.53,16.16 97.53,16.29 L97.53,16.37 C97.53,16.58 97.68,16.68 97.99,16.68 L100.99,16.68 C101.3,16.68 101.45,16.58 101.45,16.37 L101.45,16.3 C101.48,16.17 101.36,16 101.12,15.75 Z" id="Path"></path>
        </g>
    </g>
</svg>