<?xml version="1.0" encoding="UTF-8"?>
<svg width="40px" height="40px" viewBox="0 0 40 40" version="1.1" xmlns="http://www.w3.org/2000/svg" xmlns:xlink="http://www.w3.org/1999/xlink">
    <!-- Generator: Sketch 58 (84663) - https://sketch.com -->
    <title>Artboard</title>
    <desc>Created with Sketch.</desc>
    <g id="Artboard" stroke="none" stroke-width="1" fill="none" fill-rule="evenodd">
        <g id="noun_Access_1381818" transform="translate(1.000000, 0.000000)" fill="#405749" fill-rule="nonzero">
            <path d="M36.6763896,11.8341521 C36.5650551,11.7034049 36.4537206,11.5767435 36.3341391,11.4541679 C35.9513862,11.048845 35.5378234,10.673207 35.0970892,10.3305587 L35.2043002,10.1793822 C37.114879,7.35734237 36.5248385,3.55546443 33.8468273,1.43261604 C31.1688161,-0.690232346 27.2959686,-0.426067254 24.9367854,2.04036577 L23.6997355,3.37643925 C20.310952,2.34197124 16.6229393,3.14060711 13.9786274,5.48153655 C11.3343154,7.822466 10.1195571,11.3641052 10.7766868,14.8168238 L1.24315504,21.8812613 C0.900884621,22.1341148 0.675137896,22.5123201 0.616383061,22.9313251 L0.0143520761,27.0784645 C-0.096052974,27.8476491 0.442463393,28.5603335 1.21841405,28.6719467 L5.63880593,29.3011678 L5.78725193,29.3011678 C6.01030257,29.3011678 6.2273364,29.2294837 6.40577691,29.0968752 L7.74591438,28.1040133 C7.9670067,27.9449355 8.11531972,27.7053925 8.15826437,27.4380195 L8.47165036,25.3950937 L9.65097133,25.5626136 C10.698374,25.7108622 11.6690147,24.9904425 11.8199323,23.952788 L11.9889958,22.7801486 L14.0507457,23.045729 C14.3185513,23.0817255 14.5898487,23.0112153 14.8053462,22.8496081 L16.1083722,21.8771754 C17.272032,22.4772162 18.5479734,22.8332763 19.8566336,22.9231534 L19.9143626,22.9231534 C20.0339441,23.1397036 20.1576491,23.3562537 20.2937246,23.568718 L14.0507457,33.6280847 C13.8259495,33.987968 13.7561411,34.4221265 13.8569412,34.8334109 L14.8424577,38.9192625 C14.9295325,39.282522 15.1588942,39.5965255 15.4799365,39.7919914 C15.8009789,39.9874573 16.1873173,40.0483214 16.5537102,39.9611547 L20.899879,38.9315201 C21.1657118,38.8689381 21.395597,38.7043442 21.5390215,38.4739047 L22.417327,37.0602 C22.5595041,36.8320159 22.6054175,36.5575829 22.5451555,36.2961458 L22.070953,34.2654775 L23.2131625,33.9917255 C24.2421234,33.7474717 24.8769277,32.7235044 24.6316464,31.7036486 L24.355372,30.5473526 L26.3758869,30.040707 C26.6371456,29.9752096 26.8621322,29.8109435 27.0026589,29.5830916 L27.8520999,28.2061596 C32.7544783,28.6742683 37.2892699,25.5896926 38.6103111,20.8883993 C39.4582225,17.9782663 38.9060779,14.8433488 37.1134806,12.3898279 C36.9760306,12.1991549 36.8303336,12.0139296 36.6763896,11.8341521 Z M25.8042933,3.31694388 C27.5243422,1.70582003 30.2922586,1.55410577 32.2083834,2.96592468 C34.1245082,4.3777436 34.5660086,6.89418662 33.2298768,8.78818427 L33.0690181,9 C31.8472388,8.4376757 30.5184756,8.09837502 29.1562399,8.00086918 C28.1923238,6.37173205 26.7529114,5.02223613 25,4.10425897 L25.8042933,3.31694388 Z M30.5234437,15.1500122 C30.9300456,15.3995871 31.103428,15.9013967 30.9374923,16.3483672 C30.7715566,16.7953378 30.3125556,17.0628815 29.8413671,16.9872795 C29.3701786,16.9116776 29.0181407,16.5140031 29.0006772,16.0376063 C28.9832137,15.5612094 29.3051922,15.1388802 29.7695835,15.0290557 C30.0293951,14.96466 30.3042441,15.0083071 30.5312557,15.1500122 L30.5234437,15.1500122 Z M16.3361234,19.6706867 C15.9784341,19.4584985 15.5256651,19.4808465 15.1913671,19.7271902 L13.69785,20.8330447 L11.3180699,20.5263114 C10.6169159,20.427861 9.96709113,20.9063561 9.86558346,21.5958422 L9.6070901,23.3555232 L7.81815198,23.1012573 C7.12064275,23.0026523 6.4732722,23.4770828 6.36976859,24.1627163 L6.00869851,26.5156841 L5.35220745,27 L2,26.527792 L2.48005908,23.2344442 L12.3274249,15.9697063 C12.657369,15.7253474 12.8061446,15.3101799 12.7049073,14.9163193 C11.7089694,11.2275465 13.53996,7.36640442 17.0532792,5.74659376 C20.5665983,4.1267831 24.7549136,5.21273292 27,8.32558769 C26.7374036,8.36594734 26.4748072,8.41437893 26.2122107,8.47491841 C23.572619,9.09421436 21.2987019,10.7349007 19.9053873,13.0254446 C18.5120726,15.3159884 18.1172309,18.062616 18.8102741,20.6433544 C17.9347322,20.4576455 17.0970372,20.128866 16.3320204,19.6706867 L16.3361234,19.6706867 Z M36.7006711,20.2342953 C35.6003151,24.2531699 31.6638371,26.7872034 27.5786908,26.1063981 C27.1647537,26.0362171 26.750087,26.2268741 26.5317034,26.587786 L25.5506681,28.2103954 L23.2052515,28.8038305 C22.5176178,28.9736802 22.0956843,29.6711506 22.2613141,30.3641914 L22.6735138,32.1403469 L20.9092989,32.5553365 C20.2186518,32.7195942 19.79069,33.4160248 19.9529955,34.1115475 L20.5012212,36.4977377 L20.0890215,37.20322 L16.7914235,38 L16,34.6800832 L22.45917,24.072949 C22.6794814,23.7136761 22.6615512,23.2558232 22.413828,22.9151281 C20.2423409,19.9439164 20.3364247,15.8715525 22.6427771,13.0051975 C24.9491294,10.1388424 28.8864897,9.20089203 32.2241819,10.7227336 L30.8103368,12.7976816 C29.3222006,12.4447334 27.7998134,13.2323125 27.2184174,14.6558953 C26.6370215,16.079478 27.1688292,17.7173919 28.4731642,18.5203882 L28.4731642,18.5203882 C28.9612847,18.823828 29.523556,18.9847433 30.0972312,18.9851766 C30.3429757,18.9849238 30.5878439,18.955675 30.8268248,18.8980287 C31.857245,18.6491161 32.691052,17.8894485 33.0396271,16.8819815 C33.3882022,15.8745145 33.2036377,14.7577133 32.5498197,13.9181536 L33.9842748,11.8432056 C34.3101685,12.1061594 34.6173252,12.391821 34.9034802,12.6980841 C34.9969122,12.7976816 35.0862221,12.8986624 35.1714101,13.0010265 C35.256598,13.1033906 35.3720139,13.2514036 35.5176578,13.4450654 C36.924272,15.4062596 37.3588466,17.908973 36.6965491,20.2342953 L36.7006711,20.2342953 Z" id="Shape"></path>
        </g>
    </g>
</svg>