<?xml version="1.0" encoding="UTF-8"?>
<svg width="40px" height="40px" viewBox="0 0 40 40" version="1.1" xmlns="http://www.w3.org/2000/svg" xmlns:xlink="http://www.w3.org/1999/xlink">
    <!-- Generator: Sketch 58 (84663) - https://sketch.com -->
    <title>Artboard</title>
    <desc>Created with Sketch.</desc>
    <g id="Artboard" stroke="none" stroke-width="1" fill="none" fill-rule="evenodd">
        <g id="noun_Dummy-Teat_2110385" transform="translate(20.000000, 20.500000) rotate(45.000000) translate(-20.000000, -20.500000) translate(3.000000, -2.000000)" fill="#405749" fill-rule="nonzero">
            <path d="M30.8712582,23.435309 L23.0211803,23.435309 C23.2659852,22.7025185 23.3639072,21.9208753 23.2986259,21.1229478 C23.2659852,20.6507051 23.1680632,20.1947465 23.0211803,19.7550722 C25.8609174,17.8498168 27.6071925,14.658107 27.6071925,11.2058494 C27.6071925,5.53893599 22.9885396,0.914213562 17.2927451,0.914213562 C11.5969505,0.914213562 6.97829762,5.52265176 6.97829762,11.2058494 C6.97829762,14.658107 8.70825241,17.8661011 11.5643099,19.7550722 C11.3684659,20.3413046 11.2705439,20.9763897 11.2705439,21.5951906 C11.2705439,22.2302757 11.3684659,22.8490766 11.5643099,23.435309 L3.7305523,23.435309 C2.11483981,23.435309 0.792893219,24.754332 0.792893219,26.3664711 L0.792893219,26.8387139 C0.792893219,28.4508531 2.11483981,29.769876 3.7305523,29.769876 L11.4827082,29.769876 L10.0465193,35.7299056 C9.5079485,37.9608457 10.0138787,40.2732069 11.4337472,42.0807569 C12.8536158,43.8883068 14.9915788,44.9142136 17.2927451,44.9142136 C19.5939113,44.9142136 21.7318743,43.8883068 23.1517429,42.0807569 C24.5716115,40.2732069 25.0775416,37.9608457 24.5389708,35.7299056 L23.1027819,29.769876 L30.8549378,29.769876 C32.4706503,29.769876 33.7927464,28.4508531 33.7927464,26.8387139 L33.7927464,26.3664711 C33.8089172,24.754332 32.4869707,23.435309 30.8712582,23.435309 Z M12.4945686,18.0126592 C10.2913243,16.4656569 8.96937767,13.9253164 8.96937767,11.2058494 C8.96937767,6.61369543 12.7067328,2.86832163 17.3253857,2.86832163 C21.9440386,2.86832163 25.6813938,6.59741119 25.6813938,11.2058494 C25.6813938,13.9253164 24.3431269,16.4656569 22.1398826,18.0126592 C22.1235622,17.9963749 22.1235622,17.9800907 22.1072419,17.9800907 C22.0746012,17.931238 22.0256403,17.8823853 21.9929996,17.8335326 C21.9766793,17.8009641 21.9440386,17.7683956 21.9277183,17.7521114 C21.862437,17.6869745 21.7971557,17.6055533 21.7318743,17.5404164 C21.715554,17.5241321 21.6829134,17.4915637 21.666593,17.4752794 C21.617632,17.4264267 21.5686711,17.377574 21.5197101,17.3287213 C21.5033898,17.3124371 21.4707491,17.2798686 21.4381084,17.2635844 C21.3891475,17.2147317 21.3401865,17.165879 21.2912255,17.1170263 C21.2749052,17.1007421 21.2422645,17.0844578 21.2259442,17.0518894 C21.1606629,17.0030367 21.0953815,16.954184 21.0301002,16.889047 C21.0137799,16.8727628 21.0137799,16.8727628 20.9974596,16.8564786 C20.7526547,16.6610677 20.4915294,16.4982254 20.2140838,16.3353831 C20.2140838,16.3353831 20.2140838,16.3353831 20.1977635,16.3353831 C19.8223959,16.1399723 19.4307081,15.9608457 19.0226999,15.846856 C19.0226999,15.846856 19.0226999,15.846856 19.0063795,15.846856 C18.9084576,15.8142876 18.8268559,15.7980033 18.728934,15.7654349 C18.7126136,15.7654349 18.6962933,15.7491506 18.6636526,15.7491506 C18.582051,15.7328664 18.5004494,15.7165822 18.435168,15.7002979 C18.4025274,15.7002979 18.3862071,15.6840137 18.3535664,15.6840137 C18.2719648,15.6677295 18.2066834,15.6514452 18.1250818,15.6514452 C18.0924411,15.6514452 18.0761208,15.6514452 18.0434802,15.635161 C17.9455582,15.6188768 17.8476362,15.6188768 17.7333939,15.6025925 C17.6028313,15.5863083 17.4722687,15.5863083 17.3417061,15.5863083 C17.3253857,15.5863083 17.3090654,15.5863083 17.3090654,15.5863083 C17.2927451,15.5863083 17.2601044,15.5863083 17.2437841,15.5863083 C17.1621824,15.5863083 17.0805808,15.5863083 16.9989792,15.5863083 C16.9663385,15.5863083 16.9500182,15.5863083 16.9173775,15.5863083 C16.8194555,15.5863083 16.7052132,15.6025925 16.6072913,15.6188768 C16.6072913,15.6188768 16.590971,15.6188768 16.590971,15.6188768 C15.7749545,15.7165822 15.0078991,15.9771299 14.306125,16.3679515 C14.306125,16.3679515 14.2898047,16.3679515 14.2898047,16.3679515 C14.208203,16.4168042 14.1266014,16.4656569 14.0449997,16.5145096 C14.0286794,16.5307939 14.0123591,16.5470781 13.9797184,16.5470781 C13.9144371,16.5796466 13.8654761,16.6284993 13.8001948,16.677352 C13.7675542,16.7099204 13.7185932,16.7262047 13.6859525,16.7587731 C13.6533119,16.7750574 13.6369915,16.8076258 13.6043509,16.8239101 C13.310585,17.0518894 13.0331394,17.3124371 12.7883345,17.5892691 C12.7720141,17.6055533 12.7720141,17.6055533 12.7556938,17.6218375 C12.7067328,17.6869745 12.6414515,17.7521114 12.5924905,17.8172484 C12.5761702,17.8335326 12.5598499,17.8498168 12.5598499,17.8661011 C12.5435295,17.9475222 12.5108889,17.9800907 12.4945686,18.0126592 Z M13.2453037,21.6114749 C13.2453037,20.9763897 13.3921866,20.3738731 13.6533119,19.8364934 C13.6533119,19.8202091 13.6696322,19.8202091 13.6696322,19.8039249 C13.8001948,19.5433771 13.9633981,19.2828294 14.1429217,19.0711344 C14.159242,19.0548501 14.1755624,19.0385659 14.1755624,19.0222817 C14.2245234,18.973429 14.257164,18.9245763 14.306125,18.8757236 C14.3224453,18.8594393 14.3387657,18.8268709 14.3714063,18.8105866 C14.4203673,18.7617339 14.4856486,18.696597 14.5346096,18.6477443 C14.6325316,18.5663231 14.7141332,18.4849019 14.8120552,18.419765 C14.8283755,18.4034808 14.8446958,18.4034808 14.8610162,18.3871965 C14.9262975,18.3383438 15.0078991,18.2732069 15.0895008,18.2243542 C15.1384617,18.1917857 15.1711024,18.1755015 15.2200634,18.142933 C15.2690244,18.1103646 15.3179853,18.0940803 15.3669463,18.0615119 C15.4159073,18.0289434 15.4811886,17.9963749 15.5301496,17.9800907 C15.5627903,17.9638065 15.5954309,17.9475222 15.6280716,17.931238 C15.7749545,17.8661011 15.9218375,17.8009641 16.0687204,17.7521114 C16.0850408,17.7521114 16.0850408,17.7521114 16.1013611,17.7358272 C16.1666424,17.7195429 16.2482441,17.7032587 16.3135254,17.6706902 C16.346166,17.654406 16.395127,17.654406 16.4277677,17.6381218 C16.493049,17.6218375 16.5583303,17.6055533 16.6236116,17.6055533 C16.6725726,17.5892691 16.7378539,17.5892691 16.7868149,17.5892691 C16.8357759,17.5892691 16.9010572,17.5729848 16.9500182,17.5729848 C17.0642605,17.5567006 17.1785028,17.5567006 17.2764247,17.5567006 C17.3743467,17.5567006 17.4722687,17.5567006 17.5701906,17.5729848 C17.5701906,17.5729848 17.5701906,17.5729848 17.5701906,17.5729848 C17.6844329,17.5729848 17.7823549,17.5892691 17.8965972,17.6055533 C17.9292379,17.6055533 17.9618785,17.6218375 17.9945192,17.6218375 C18.0761208,17.6381218 18.1414021,17.654406 18.2066834,17.6706902 C18.2393241,17.6869745 18.2882851,17.6869745 18.3209257,17.7032587 C18.4188477,17.7358272 18.5004494,17.7521114 18.5983713,17.7846799 C18.6473323,17.8009641 18.6962933,17.8172484 18.7452543,17.8498168 C18.7942153,17.8661011 18.8268559,17.8823853 18.8758169,17.8986695 C18.9247779,17.9149538 18.9900592,17.9475222 19.0390202,17.9800907 C19.0716608,17.9963749 19.1043015,18.0126592 19.1369422,18.0289434 C19.2675048,18.0940803 19.3817471,18.1592173 19.4959894,18.2406384 C19.4959894,18.2406384 19.5123097,18.2569227 19.5123097,18.2569227 C19.577591,18.2894911 19.626552,18.3383438 19.6918333,18.3871965 C19.7081536,18.4034808 19.7407943,18.419765 19.7571146,18.4360492 C19.8060756,18.4849019 19.8713569,18.5174704 19.9203179,18.5663231 C19.9366382,18.5826073 19.9366382,18.5826073 19.9529586,18.5988916 C20.0672009,18.696597 20.1651228,18.7943024 20.2630448,18.908292 C20.2793651,18.9245763 20.2956855,18.9408605 20.2956855,18.9571447 C20.3446464,19.0059974 20.3936074,19.0711344 20.4262481,19.1199871 C20.4425684,19.1362713 20.4588887,19.1688398 20.4752091,19.185124 C20.5241701,19.2339767 20.5568107,19.2991136 20.6057717,19.3479663 C20.622092,19.3642506 20.622092,19.3805348 20.6384124,19.396819 C20.720014,19.5108087 20.7852953,19.6247983 20.8505766,19.7550722 C21.0953815,20.227315 21.2585848,20.7484105 21.3075458,21.3020744 C21.3728271,22.0674334 21.2096238,22.8002239 20.8832173,23.4515933 L13.6533119,23.4515933 C13.4085069,22.8816451 13.2453037,22.24656 13.2453037,21.6114749 Z M22.6621331,36.1858642 C23.0538209,37.8305718 22.6784534,39.5404164 21.6339524,40.8594393 C20.5894514,42.1947465 19.0063795,42.9438213 17.3090654,42.9438213 C15.6117513,42.9438213 14.0449997,42.1784623 12.9841784,40.8594393 C11.9396774,39.5241321 11.5643099,37.8305718 11.9559977,36.1858642 L13.5064289,29.769876 L21.1117019,29.769876 L22.6621331,36.1858642 Z M31.8504779,26.8387139 C31.8504779,27.3760937 31.409829,27.815768 30.8712582,27.815768 L3.74687263,27.815768 C3.2083018,27.815768 2.76765294,27.3760937 2.76765294,26.8387139 L2.76765294,26.3664711 C2.76765294,25.8290914 3.2083018,25.3894171 3.74687263,25.3894171 L30.8712582,25.3894171 C31.409829,25.3894171 31.8504779,25.8290914 31.8504779,26.3664711 L31.8504779,26.8387139 Z" id="Shape"></path>
        </g>
    </g>
</svg>