<?xml version="1.0" encoding="UTF-8"?>
<svg width="40px" height="40px" viewBox="0 0 40 40" version="1.1" xmlns="http://www.w3.org/2000/svg" xmlns:xlink="http://www.w3.org/1999/xlink">
    <!-- Generator: Sketch 58 (84663) - https://sketch.com -->
    <title>Artboard</title>
    <desc>Created with Sketch.</desc>
    <g id="Artboard" stroke="none" stroke-width="1" fill="none" fill-rule="evenodd">
        <g id="noun_pillow_1655564" transform="translate(0.000000, 5.000000)" fill="#405749" fill-rule="nonzero">
            <g id="Group">
                <path d="M38.9894737,6.28691983 C39.5789474,5.61181435 39.9157895,4.7257384 39.9157895,3.79746835 C39.9157895,1.68776371 38.2315789,0 36.1263158,0 C35.0315789,0 33.9789474,0.506329114 33.2631579,1.30801688 C24.4631579,-0.421940928 15.5368421,-0.421940928 6.73684211,1.30801688 C6.02105263,0.506329114 4.96842105,0 3.87368421,0 C1.76842105,0 0.0842105263,1.68776371 0.0842105263,3.79746835 C0.0842105263,4.7257384 0.421052632,5.61181435 1.01052632,6.28691983 C-0.336842105,11.9831224 -0.336842105,17.9746835 1.01052632,23.7130802 C0.421052632,24.3881857 0.0842105263,25.2742616 0.0842105263,26.2025316 C0.0842105263,28.3122363 1.76842105,30 3.87368421,30 C4.96842105,30 6.02105263,29.4936709 6.73684211,28.6919831 C15.5368421,30.4219409 24.4631579,30.4219409 33.2631579,28.6919831 C33.9789474,29.4936709 35.0315789,30 36.1263158,30 C38.2315789,30 39.9157895,28.3122363 39.9157895,26.2025316 C39.9157895,25.2742616 39.5789474,24.3881857 38.9894737,23.7130802 C40.3368421,17.9746835 40.3368421,11.9831224 38.9894737,6.28691983 Z M36.8,25.1898734 C37.1368421,25.4008439 37.3052632,25.7805907 37.3052632,26.1603376 C37.3052632,26.7932489 36.7578947,27.3417722 36.1263158,27.3417722 C35.6631579,27.3417722 35.2421053,27.0886076 35.0736842,26.6666667 C34.8631579,26.2025316 34.4,25.907173 33.8947368,25.907173 C33.8105263,25.907173 33.7263158,25.907173 33.6421053,25.9493671 C24.6315789,27.8481013 15.4947368,27.8481013 6.44210526,25.9493671 C5.85263158,25.8227848 5.22105263,26.1181435 4.96842105,26.7088608 C4.75789474,27.1308017 4.33684211,27.3839662 3.91578947,27.3839662 C3.28421053,27.3839662 2.73684211,26.835443 2.73684211,26.2025316 C2.73684211,25.8227848 2.90526316,25.443038 3.24210526,25.2320675 C3.70526316,24.9367089 3.91578947,24.3459916 3.74736842,23.8396624 C2.27368421,18.0590717 2.27368421,11.9831224 3.74736842,6.20253165 C3.87368421,5.65400844 3.66315789,5.10548523 3.24210526,4.81012658 C2.90526316,4.59915612 2.73684211,4.21940928 2.73684211,3.83966245 C2.73684211,3.20675105 3.28421053,2.65822785 3.91578947,2.65822785 C4.37894737,2.65822785 4.8,2.91139241 4.96842105,3.33333333 C5.22105263,3.88185654 5.81052632,4.17721519 6.44210526,4.092827 C15.4526316,2.19409283 24.5894737,2.19409283 33.6421053,4.092827 C34.2315789,4.21940928 34.8631579,3.92405063 35.1157895,3.33333333 C35.3263158,2.91139241 35.7473684,2.65822785 36.1684211,2.65822785 C36.8,2.65822785 37.3473684,3.20675105 37.3473684,3.83966245 C37.3473684,4.21940928 37.1789474,4.59915612 36.8421053,4.81012658 C36.3789474,5.10548523 36.1684211,5.69620253 36.3368421,6.20253165 C37.8105263,11.9831224 37.8105263,18.0590717 36.3368421,23.8396624 C36.1263158,24.3037975 36.3368421,24.8945148 36.8,25.1898734 Z" id="Shape"></path>
                <path d="M32.4347881,21.0347059 C24.1768197,22.7642491 15.8354375,22.7642491 7.57746909,21.0347059 C6.8684516,20.86597 6.20114102,21.3299937 6.03431338,22.0471214 C5.86748573,22.7642491 6.32626175,23.4391927 7.03527924,23.6079287 C11.3310911,24.5359762 15.6686099,25 20.0061286,25 C24.3436474,25 28.6811661,24.5359762 32.976978,23.6079287 C33.6859955,23.4391927 34.1030646,22.7642491 33.9779438,22.0471214 C33.8111162,21.3299937 33.1438056,20.86597 32.4347881,21.0347059 Z" id="Path"></path>
            </g>
        </g>
    </g>
</svg>