<?xml version="1.0" encoding="UTF-8"?>
<svg width="40px" height="40px" viewBox="0 0 40 40" version="1.1" xmlns="http://www.w3.org/2000/svg" xmlns:xlink="http://www.w3.org/1999/xlink">
    <!-- Generator: Sketch 58 (84663) - https://sketch.com -->
    <title>Artboard</title>
    <desc>Created with Sketch.</desc>
    <g id="Artboard" stroke="none" stroke-width="1" fill="none" fill-rule="evenodd">
        <g id="noun_No-Smoking_2413314" transform="translate(0.000000, 1.000000)" fill="#405749" fill-rule="nonzero">
            <path d="M34.0172414,5.68103448 C30.3534483,2.01724138 25.4827586,0 20.3017241,0 C15.1206897,0 10.25,2.01724138 6.5862069,5.68103448 C2.92241379,9.34482759 0.905172414,14.2155172 0.905172414,19.3965517 C0.905172414,24.5775862 2.92241379,29.4482759 6.5862069,33.112069 C10.25,36.7758621 15.1206897,38.7931034 20.3017241,38.7931034 C25.4827586,38.7931034 30.3534483,36.7758621 34.0172414,33.112069 C37.6810345,29.4482759 39.6982759,24.5775862 39.6982759,19.3965517 C39.6982759,14.2155172 37.6810345,9.34482759 34.0172414,5.68103448 Z M32.7974138,6.90086207 C36.137931,10.237069 37.9741379,14.6767241 37.9741379,19.3965517 C37.9741379,23.8275862 36.3534483,28.012931 33.3922414,31.2672414 L24.5387931,22.4137931 L32.8017241,22.4137931 C33.2758621,22.4137931 33.6637931,22.0258621 33.6637931,21.5517241 L33.6637931,17.2413793 C33.6637931,16.7672414 33.2758621,16.3793103 32.8017241,16.3793103 L31.5086207,16.3793103 L31.5086207,15.0862069 C31.5086207,13.4224138 30.1551724,12.0689655 28.4913793,12.0689655 L25.4741379,12.0689655 L24.1810345,12.0689655 L22.4568966,12.0689655 C21.7456897,12.0689655 21.1637931,11.487069 21.1637931,10.7758621 C21.1637931,10.0646552 21.7456897,9.48275862 22.4568966,9.48275862 L25.4741379,9.48275862 C25.9482759,9.48275862 26.3362069,9.09482759 26.3362069,8.62068966 C26.3362069,8.14655172 25.9482759,7.75862069 25.4741379,7.75862069 L22.4568966,7.75862069 C20.7931034,7.75862069 19.4396552,9.11206897 19.4396552,10.7758621 C19.4396552,12.4396552 20.7931034,13.7931034 22.4568966,13.7931034 L24.1810345,13.7931034 L25.4741379,13.7931034 L28.4913793,13.7931034 C29.2025862,13.7931034 29.7844828,14.375 29.7844828,15.0862069 L29.7844828,16.3793103 L18.5043103,16.3793103 L8.43103448,6.30603448 C11.6853448,3.34482759 15.8706897,1.72413793 20.3017241,1.72413793 C25.0215517,1.72413793 29.4612069,3.56034483 32.7974138,6.90086207 Z M8.6637931,20.6896552 L8.6637931,18.1034483 L14.6982759,18.1034483 L14.6982759,20.6896552 L8.6637931,20.6896552 Z M16.4224138,18.1034483 L17.7887931,18.1034483 L20.375,20.6896552 L16.4224138,20.6896552 L16.4224138,18.1034483 Z M20.2284483,18.1034483 L27.6293103,18.1034483 L27.6293103,20.6896552 L22.8146552,20.6896552 L20.2284483,18.1034483 Z M31.9396552,18.1034483 L31.9396552,20.6896552 L29.3534483,20.6896552 L29.3534483,18.1034483 L31.9396552,18.1034483 Z M7.80603448,31.8922414 C4.46551724,28.5560345 2.62931034,24.1163793 2.62931034,19.3965517 C2.62931034,14.9655172 4.25,10.7801724 7.2112069,7.52586207 L16.0646552,16.3793103 L7.80172414,16.3793103 C7.32758621,16.3793103 6.93965517,16.7672414 6.93965517,17.2413793 L6.93965517,21.5517241 C6.93965517,22.0258621 7.32758621,22.4137931 7.80172414,22.4137931 L22.0991379,22.4137931 L32.1724138,32.487069 C28.9181034,35.4482759 24.7327586,37.0689655 20.3017241,37.0689655 C15.5818966,37.0689655 11.1422414,35.2327586 7.80603448,31.8922414 Z" id="Shape"></path>
        </g>
    </g>
</svg>